PathFileType	4	(X/Y/Z)	./resultDataOpenSim/trcMotMarkerGrf/sub06/qtm-15-04.trc
DataRate	CameraRate	NumFrames	NumMarkers	Units	OrigDataRate	OrigDataStartFrame	OrigNumFrames
250.000000	250.000000	8	24	m	250.000000	400	533
Frame#	Time	L.Toe.Tip			R.Toe.Tip			L.Ankle.Lat			R.Ankle.Lat			L.Ankle.Med			R.Ankle.Med			L.Heel			R.Heel			L.Knee.Lat			R.Knee.Lat			L.Knee.Med			R.Knee.Med			L.Thigh.Upper			R.Thigh.Upper			L.ASIS			R.ASIS			V.Sacral			L.Acromium			R.Acromium			C7			L.Elbow			R.Elbow			L.Wrist.Lat			R.Wrist.Lat
		X1	Y1	Z1	X2	Y2	Z2	X3	Y3	Z3	X4	Y4	Z4	X5	Y5	Z5	X6	Y6	Z6	X7	Y7	Z7	X8	Y8	Z8	X9	Y9	Z9	X10	Y10	Z10	X11	Y11	Z11	X12	Y12	Z12	X13	Y13	Z13	X14	Y14	Z14	X15	Y15	Z15	X16	Y16	Z16	X17	Y17	Z17	X18	Y18	Z18	X19	Y19	Z19	X20	Y20	Z20	X21	Y21	Z21	X22	Y22	Z22	X23	Y23	Z23	X24	Y24	Z24

400	1.596	1.5311335	0.10581948	-0.1102659	0.97676823	0.035160323	0.035667968	1.4059927	0.12815367	-0.13463971	0.85607144	0.0966049	0.065536131	1.4060482	0.14090105	-0.049990381	0.88257091	0.11827353	-0.018826856	1.3361623	0.088495239	-0.092334928	0.79889132	0.0965897	0.0056076377	1.4055475	0.50641738	-0.12695218	1.0314658	0.44873202	0.10738957	1.3798425	0.49577359	-0.0084006926	1.012645	0.45042376	-0.02328397	1.1877527	0.83078209	-0.16827893	1.0996227	0.80626256	0.16834245	1.2411454	0.87738781	-0.10660807	1.2063652	0.86327067	0.13798577	1.0423832	0.93807497	-0.0044451772	1.1686329	1.346979	-0.17777539	1.156812	1.3405867	0.18187046	1.083553	1.3796807	8.6720153e-06	1.0532136	1.0608628	-0.23470622	1.2401528	1.0294204	0.26794433	1.1100324	0.8344333	-0.30113065	1.4565232	1.1134585	0.16512389
401	1.6	1.5459139	0.10632621	-0.10806846	0.97682579	0.035204852	0.035750381	1.4201267	0.12585314	-0.13305994	0.85669973	0.097361676	0.065784648	1.4200431	0.13857929	-0.048380877	0.88327453	0.11884661	-0.018589135	1.3512467	0.084674763	-0.090641399	0.79948843	0.097779336	0.0058632913	1.409612	0.50339594	-0.12638749	1.034812	0.44823394	0.10743252	1.383516	0.49263749	-0.0077817569	1.0162062	0.44991876	-0.023297232	1.1941431	0.82939441	-0.16852505	1.1049041	0.80515865	0.16801267	1.2476538	0.87588696	-0.10671923	1.2119594	0.86176407	0.13785023	1.0482192	0.9368675	-0.0054097387	1.1741561	1.3459042	-0.17792793	1.1622847	1.3393112	0.18176532	1.089022	1.3784237	-0.00013104531	1.0576623	1.0604167	-0.23468207	1.247271	1.0283245	0.26740842	1.112667	0.83387881	-0.30217947	1.4624056	1.1136821	0.16371302
402	1.604	1.5603387	0.10688075	-0.10582515	0.97688181	0.035255091	0.035838975	1.4338943	0.12375045	-0.1314038	0.85735413	0.098142196	0.066072261	1.4334856	0.13637768	-0.046813526	0.88398805	0.11944567	-0.018320997	1.3659647	0.081246753	-0.089129269	0.80009353	0.099020067	0.0061946601	1.4137101	0.5002891	-0.12587589	1.0382097	0.44773262	0.10748571	1.3871343	0.48941408	-0.0071775617	1.0198224	0.44940026	-0.023294319	1.2005571	0.82798105	-0.16876916	1.110525	0.80399788	0.16796597	1.2541822	0.87434202	-0.10684594	1.2176172	0.86022305	0.13774119	1.0541596	0.93563811	-0.0063232117	1.1797058	1.3448052	-0.17808939	1.1678088	1.338018	0.18162716	1.0945218	1.3771259	-0.00028629282	1.062195	1.0599222	-0.23464981	1.2542695	1.0272092	0.26686523	1.1154405	0.83330612	-0.30321954	1.468381	1.1138504	0.16251884
403	1.608	1.5743258	0.10751009	-0.10370189	0.97693948	0.035303372	0.035915868	1.4472499	0.12182575	-0.12973861	0.8580241	0.098939717	0.066379961	1.4462654	0.13444007	-0.045348293	0.88471893	0.12006979	-0.018024497	1.3802388	0.078166542	-0.087812437	0.80070097	0.10032358	0.0066249365	1.4178853	0.49711999	-0.12540537	1.0416593	0.4472194	0.10754722	1.3907002	0.48611658	-0.0065866876	1.0234979	0.44886335	-0.023273161	1.2070083	0.82654297	-0.16901001	1.1163566	0.80271039	0.16813305	1.2607263	0.87276179	-0.1069811	1.2233316	0.85865168	0.13763598	1.0602066	0.9343794	-0.0071485007	1.1852795	1.3436902	-0.17825918	1.1733777	1.3367085	0.18146933	1.1000583	1.375791	-0.00045507319	1.0668151	1.0593959	-0.23462254	1.2610773	1.0260926	0.26629961	1.118354	0.83270625	-0.30424086	1.4744109	1.1139162	0.16147056
404	1.612	1.5877824	0.10824887	-0.10176752	0.97700155	0.035342683	0.035978781	1.4601579	0.12005817	-0.1281199	0.85870592	0.099762958	0.066705387	1.4585326	0.13284041	-0.043935948	0.88547955	0.12071834	-0.017705517	1.3940011	0.075297581	-0.086414152	0.80132714	0.10168534	0.0071180242	1.4221975	0.49391578	-0.1249633	1.0451525	0.44669219	0.10761872	1.3942322	0.48275769	-0.0060058011	1.0272365	0.44830531	-0.023231961	1.2135085	0.82508559	-0.16924938	1.1219745	0.80130998	0.16824571	1.2672883	0.87115496	-0.10712148	1.229089	0.85705918	0.13753198	1.0662882	0.93309607	-0.0079383202	1.1908795	1.3425607	-0.17843792	1.1789706	1.3353868	0.18129832	1.1056221	1.3744267	-0.00063563656	1.0715302	1.058836	-0.23461199	1.267686	1.0249657	0.26571427	1.1214122	0.83207415	-0.30524124	1.4804493	1.1138297	0.16049503
405	1.616	1.6006238	0.10911043	-0.099984912	0.97706921	0.035371289	0.036034629	1.4725639	0.11842021	-0.12655124	0.85943064	0.10061384	0.067067623	1.4704234	0.13151606	-0.042513526	0.88628328	0.12139051	-0.017371241	1.4071912	0.072506591	-0.084646961	0.80200293	0.10309299	0.0076117851	1.4266909	0.49070694	-0.12453449	1.048679	0.44615312	0.10770243	1.3977664	0.4793536	-0.0054289833	1.0310416	0.4477283	-0.023167814	1.2200585	0.82361021	-0.16948967	1.1270107	0.79992667	0.16808552	1.2738733	0.86953045	-0.10726557	1.2348915	0.85545498	0.13744589	1.0723342	0.93180443	-0.00875374	1.1965142	1.3414095	-0.17862691	1.184581	1.334054	0.18110608	1.1112091	1.3730346	-0.00083223357	1.0763374	1.0582275	-0.23461986	1.2741372	1.023814	0.26512033	1.1246274	0.83141331	-0.30623117	1.4864772	1.1135715	0.15956486
406	1.62	1.6127692	0.11003852	-0.098319488	0.97714264	0.035388969	0.036087223	1.4843918	0.11688213	-0.12500501	0.86025261	0.10145494	0.067491662	1.4819074	0.13035908	-0.041082064	0.88713479	0.12208703	-0.017023429	1.4197788	0.069764996	-0.082530703	0.80274554	0.10454058	0.0080821836	1.4313392	0.48752536	-0.1240986	1.052245	0.44560072	0.10779879	1.4013442	0.47592642	-0.0048454846	1.0349183	0.44713454	-0.02308204	1.2266537	0.82211125	-0.16973108	1.1314443	0.79866612	0.16765095	1.2804866	0.86789467	-0.10741346	1.2407541	0.8538444	0.13740598	1.078338	0.93051921	-0.0096150872	1.2021902	1.3402302	-0.17882594	1.1902184	1.3327086	0.18088783	1.1168312	1.3716132	-0.0010476106	1.0812243	1.0575608	-0.2346426	1.2804992	1.0226264	0.2645303	1.1280055	0.83072704	-0.30721872	1.4924933	1.1131503	0.15867693
407	1.624	1.624163	0.11092564	-0.096770371	0.97721955	0.03539243	0.036136708	1.4955879	0.11541732	-0.12346973	0.86119166	0.10223863	0.067992668	1.492882	0.12929125	-0.039675255	0.88802987	0.12281158	-0.016657935	1.4317709	0.067142602	-0.080364769	0.80355382	0.10602995	0.0085461447	1.4360545	0.48440501	-0.12364084	1.0559056	0.44502574	0.10790214	1.4049945	0.4724988	-0.0042375973	1.0388744	0.44652031	-0.022985675	1.2332925	0.82058638	-0.1699724	1.1354679	0.79753148	0.16706812	1.2871344	0.86625235	-0.10756731	1.2466832	0.85223048	0.13742648	1.0843562	0.9292496	-0.010498176	1.2079062	1.3390225	-0.17903428	1.1958932	1.3313476	0.18064879	1.1225	1.3701671	-0.0012813757	1.08619	1.0568414	-0.23467127	1.2868227	1.021395	0.26395261	1.1315393	0.83001122	-0.30819956	1.498504	1.1125881	0.15783223
